# xmcd CD database file
#
# Track frame offsets:
#	150
#	19766
#	39022
#	63285
#	79445
#	114292
#	128779
#	147715
#	161295
#	179439
#
# Disc length: 2646 seconds
#
# Revision: 0
# Processed by: cddbd v1.5.2PL0 Copyright (c) Steve Scherf et al.
# Submitted via: CDex 2.06
#
DISCID=7e0a540a
DTITLE=Jean-Marc Foltz and Philippe Mouratoglou - Legends of the Fall
DYEAR=2017
DGENRE=Jazz
TTITLE0=Solar Wind
TTITLE1=Fathers Tales
TTITLE2=Cold Blue 44
TTITLE3=Heavenward
TTITLE4=Mountain Ghosts
TTITLE5=Garland
TTITLE6=Scorpion's Brush
TTITLE7=Sitting Still
TTITLE8=Night Hunt
TTITLE9=Legends Of The Fall
EXTD=YEAR: 2017
EXTT0=
EXTT1=
EXTT2=
EXTT3=
EXTT4=
EXTT5=
EXTT6=
EXTT7=
EXTT8=
EXTT9=
PLAYORDER=
